<?xml version="1.0" encoding="UTF-8"?>
<svg width="52px" height="45px" viewBox="0 0 52 45" version="1.1" xmlns="http://www.w3.org/2000/svg" xmlns:xlink="http://www.w3.org/1999/xlink">
    <!-- Generator: Sketch 43.2 (39069) - http://www.bohemiancoding.com/sketch -->
    <title>list</title>
    <desc>Created with Sketch.</desc>
    <defs></defs>
    <g id="Page-1" stroke="none" stroke-width="1" fill="none" fill-rule="evenodd">
        <g id="Desktop-HD" transform="translate(-342.000000, -2386.000000)" fill-rule="nonzero" fill="#000000">
            <g id="list" transform="translate(342.000000, 2386.000000)">
                <path d="M42.3428571,18.6360812 L20.8,18.6360812 C18.7497143,18.6360812 18.5714286,20.3021469 18.5714286,22.3632974 C18.5714286,24.424448 18.7497143,26.0905137 20.8,26.0905137 L42.3428571,26.0905137 C44.3931429,26.0905137 44.5714286,24.424448 44.5714286,22.3632974 C44.5714286,20.3021469 44.3931429,18.6360812 42.3428571,18.6360812 Z M49.7714286,37.2721624 L20.8,37.2721624 C18.7497143,37.2721624 18.5714286,38.938228 18.5714286,40.9993786 C18.5714286,43.0605292 18.7497143,44.7265949 20.8,44.7265949 L49.7714286,44.7265949 C51.8217143,44.7265949 52,43.0605292 52,40.9993786 C52,38.938228 51.8217143,37.2721624 49.7714286,37.2721624 Z M20.8,7.45443248 L49.7714286,7.45443248 C51.8217143,7.45443248 52,5.78836682 52,3.72721624 C52,1.66606566 51.8217143,0 49.7714286,0 L20.8,0 C18.7497143,0 18.5714286,1.66606566 18.5714286,3.72721624 C18.5714286,5.78836682 18.7497143,7.45443248 20.8,7.45443248 Z M8.91428571,18.6360812 L2.22857143,18.6360812 C0.178285714,18.6360812 0,20.3021469 0,22.3632974 C0,24.424448 0.178285714,26.0905137 2.22857143,26.0905137 L8.91428571,26.0905137 C10.9645714,26.0905137 11.1428571,24.424448 11.1428571,22.3632974 C11.1428571,20.3021469 10.9645714,18.6360812 8.91428571,18.6360812 Z M8.91428571,37.2721624 L2.22857143,37.2721624 C0.178285714,37.2721624 0,38.938228 0,40.9993786 C0,43.0605292 0.178285714,44.7265949 2.22857143,44.7265949 L8.91428571,44.7265949 C10.9645714,44.7265949 11.1428571,43.0605292 11.1428571,40.9993786 C11.1428571,38.938228 10.9645714,37.2721624 8.91428571,37.2721624 Z M8.91428571,0 L2.22857143,0 C0.178285714,0 0,1.66606566 0,3.72721624 C0,5.78836682 0.178285714,7.45443248 2.22857143,7.45443248 L8.91428571,7.45443248 C10.9645714,7.45443248 11.1428571,5.78836682 11.1428571,3.72721624 C11.1428571,1.66606566 10.9645714,0 8.91428571,0 Z" id="Shape"></path>
            </g>
        </g>
    </g>
</svg>