<?xml version="1.0" encoding="UTF-8"?>
<svg width="32px" height="56px" viewBox="0 0 32 56" version="1.1" xmlns="http://www.w3.org/2000/svg" xmlns:xlink="http://www.w3.org/1999/xlink">
    <!-- Generator: Sketch 43.2 (39069) - http://www.bohemiancoding.com/sketch -->
    <title>hour-glass</title>
    <desc>Created with Sketch.</desc>
    <defs></defs>
    <g id="Page-1" stroke="none" stroke-width="1" fill="none" fill-rule="evenodd">
        <g id="Desktop-HD" transform="translate(-1040.000000, -2380.000000)" fill-rule="nonzero" fill="#000000">
            <g id="hour-glass" transform="translate(1040.000000, 2380.000000)">
                <path d="M31.8666667,12.8128 L31.8666667,6.2384 C31.8666667,4.0292 24.7606667,0 16,0 C7.2365,0 0.133333333,4.0292 0.133333333,6.2384 L0.133333333,12.8128 C0.133333333,18.8076 11.1181667,23.7552 11.1181667,28 C11.1181667,32.2392 0.133333333,37.1868 0.133333333,43.1816 L0.133333333,49.7616 C0.133333333,51.968 7.2365,56 16,56 C24.7606667,56 31.8666667,51.968 31.8666667,49.7588 L31.8666667,43.1788 C31.8666667,37.184 20.8818333,32.2364 20.8818333,27.9972 C20.8818333,23.7552 31.8666667,18.8076 31.8666667,12.8128 Z M4.4995,6.5184 C6.4715,5.2892 10.1661667,3.4888 16.1558333,3.4888 C22.1426667,3.4888 27.5061667,6.5184 27.5061667,6.5184 C27.9085,6.7592 29.4838333,7.5908 28.4043333,8.2236 C26.03,9.6152 21.3833333,11.0796 16,11.0796 C10.6166667,11.0796 6.12866667,9.4668 3.74866667,8.0724 C2.66916667,7.4424 4.4995,6.5184 4.4995,6.5184 Z M17.4195,28 C17.4195,31.3404 20.2415,33.4908 23.2306667,36.3608 C25.4151667,38.4552 28.4043333,41.3252 28.4043333,43.1788 L28.4043333,46.8972 C25.656,45.5448 17.4336667,44.2232 17.4336667,39.886 C17.4336667,37.6936 14.5635,37.6936 14.5635,39.886 C14.5635,44.2232 6.34116667,45.5448 3.59283333,46.8972 L3.59283333,43.1788 C3.59283333,41.3252 6.58483333,38.4524 8.7665,36.3608 C11.7556667,33.4908 14.5776667,31.3404 14.5776667,28 C14.5776667,24.6596 11.7556667,22.5092 8.7665,19.6392 C6.582,17.5392 3.59283333,14.6692 3.59283333,12.8128 L3.4625,10.0184 C6.3695,11.5668 10.9765,13.0368 16,13.0368 C21.0206667,13.0368 25.6503333,11.5668 28.5601667,10.0184 L28.4043333,12.8128 C28.4043333,14.6664 25.4123333,17.5392 23.2306667,19.6392 C20.2443333,22.5092 17.4195,24.6596 17.4195,28 Z" id="Shape"></path>
            </g>
        </g>
    </g>
</svg>