<?xml version="1.0" encoding="UTF-8"?>
<svg width="58px" height="59px" viewBox="0 0 58 59" version="1.1" xmlns="http://www.w3.org/2000/svg" xmlns:xlink="http://www.w3.org/1999/xlink">
    <!-- Generator: Sketch 43.2 (39069) - http://www.bohemiancoding.com/sketch -->
    <title>ruler</title>
    <desc>Created with Sketch.</desc>
    <defs></defs>
    <g id="Page-1" stroke="none" stroke-width="1" fill="none" fill-rule="evenodd">
        <g id="Desktop-HD" transform="translate(-691.000000, -2379.000000)" fill-rule="nonzero" fill="#000000">
            <g id="ruler" transform="translate(691.000000, 2378.000000)">
                <path d="M41.3221,2.27228571 L1.2702,42.3957619 C-0.4234,44.0921429 -0.4234,46.8632857 1.276,48.5654762 L10.5125,57.8229524 C12.2061,59.5193333 14.9814,59.5251429 16.6721,57.8287619 L56.7298,17.7052857 C58.4234,16.006 58.4234,13.2290476 56.7298,11.5326667 L47.4904,2.27228571 C45.7881,0.570095238 43.0186,0.578809524 41.3221,2.27228571 Z M11.3941,45.4777143 L9.193,47.6824286 L3.6946,42.1720952 L5.8957,39.967381 L11.3941,45.4777143 Z M20.1985,45.4777143 L17.9974,47.6824286 L8.0939,37.7626667 L10.295,35.5550476 L20.1985,45.4777143 Z M20.1985,36.6588571 L17.9974,38.8635714 L12.4932,33.3561429 L14.6972,31.1485238 L20.1985,36.6588571 Z M24.6007,32.2494286 L22.3996,34.4541429 L16.9012,28.9467143 L19.1023,26.7390952 L24.6007,32.2494286 Z M33.4022,32.2494286 L31.2011,34.4541429 L21.3005,24.5372857 L23.5016,22.3325714 L33.4022,32.2494286 Z M33.4022,23.4334762 L31.2011,25.6381905 L25.7027,20.1307619 L27.9038,17.9260476 L33.4022,23.4334762 Z M37.8044,19.0269524 L35.6033,21.2316667 L30.102,15.7213333 L32.3031,13.516619 L37.8044,19.0269524 Z M46.6088,19.0269524 L44.4048,21.2316667 L34.5042,11.3119048 L36.7053,9.10428571 L46.6088,19.0269524 Z M46.6059,10.211 L44.4048,12.4157143 L38.9064,6.90247619 L41.1075,4.70066667 L46.6059,10.211 Z" id="Shape"></path>
            </g>
        </g>
    </g>
</svg>